<svg viewBox="0 0 119.165 115.12" fill="none" xmlns="http://www.w3.org/2000/svg" xmlns:xlink="http://www.w3.org/1999/xlink" id="205d1db6" x="0" y="0"><g id="Website" data-node-id="0:8" clip-path="url(#clip0_0_8)"><g id="Group 16261" data-node-id="0:137">
<path id="Rectangle 4470_2" data-node-id="0:138" d="M105.539,0.63h-92.039c-7.18,0 -13,5.62 -13,12.55v88.89c0,6.93 5.82,12.55 13,12.55h92.039c7.18,0 13,-5.62 13,-12.55v-88.89c0,-6.93 -5.82,-12.55 -13,-12.55z" fill="#7C3AED" fill-opacity="0.23"/>
<path id="Rectangle 4470 - Outline_2" data-node-id="0:139" d="M12.457,1.18c-1.478,0 -2.942,0.28 -4.308,0.83c-1.366,0.54 -2.607,1.34 -3.653,2.35c-1.045,1.01 -1.874,2.21 -2.44,3.53c-0.565,1.32 -0.856,2.73 -0.856,4.16v91.02c0,2.88 1.186,5.65 3.296,7.69c2.111,2.03 4.973,3.18 7.958,3.18h94.251c2.985,0 5.847,-1.15 7.958,-3.18c2.11,-2.04 3.296,-4.81 3.296,-7.69v-91.02c0.001,-2.88 -1.184,-5.64 -3.294,-7.68c-2.11,-2.04 -4.971,-3.19 -7.956,-3.19zM12.457,0.5h94.251c3.171,0 6.213,1.22 8.455,3.39c2.242,2.16 3.502,5.1 3.502,8.16v91.02c0,3.06 -1.26,6 -3.502,8.17c-2.242,2.16 -5.284,3.38 -8.455,3.38h-94.251c-3.171,0 -6.212,-1.22 -8.455,-3.38c-2.242,-2.17 -3.502,-5.11 -3.502,-8.17v-91.02c0,-3.06 1.26,-6 3.502,-8.16c2.242,-2.17 5.284,-3.39 8.455,-3.39z" fill="url(#paint10_linear_0_8)"/>
</g><g id="group (1)" data-node-id="0:185">
<path id="Path 100" data-node-id="0:186" d="M72.542,65.52c-0.411,-2.7 -1.811,-5.17 -3.947,-6.96c-2.135,-1.79 -4.864,-2.78 -7.691,-2.79h-2.635c-2.827,0.01 -5.556,1 -7.691,2.79c-2.136,1.79 -3.536,4.26 -3.947,6.96l-1.263,8.53c-0.04,0.27 -0.013,0.55 0.079,0.82c0.092,0.26 0.246,0.5 0.451,0.7c0.5,0.48 3.534,2.92 13.693,2.92c10.159,0 13.191,-2.43 13.693,-2.92c0.204,-0.2 0.358,-0.44 0.449,-0.7c0.092,-0.27 0.118,-0.55 0.078,-0.82z" fill="#7C3AED"/>
<path id="Path 101" data-node-id="0:187" d="M48.589,57.08c-2.393,2.13 -3.951,5 -4.408,8.11l-0.916,6.12c-7.352,-0.04 -9.583,-2.63 -9.952,-3.16c-0.144,-0.19 -0.246,-0.4 -0.301,-0.63c-0.056,-0.23 -0.063,-0.47 -0.021,-0.7l0.545,-2.97c0.284,-1.55 0.95,-3.01 1.943,-4.26c0.993,-1.25 2.283,-2.24 3.76,-2.91c1.477,-0.66 3.099,-0.97 4.727,-0.9c1.628,0.07 3.214,0.51 4.625,1.3z" fill="#7C3AED"/>
<path id="Path 102" data-node-id="0:188" d="M86.178,66.82c0.042,0.23 0.035,0.47 -0.021,0.7c-0.055,0.23 -0.157,0.44 -0.301,0.63c-0.371,0.53 -2.6,3.11 -9.954,3.16l-0.916,-6.12c-0.457,-3.11 -2.015,-5.98 -4.408,-8.11c1.411,-0.79 2.998,-1.23 4.626,-1.3c1.629,-0.07 3.251,0.24 4.729,0.9c1.478,0.66 2.768,1.66 3.762,2.91c0.993,1.25 1.659,2.71 1.943,4.26z" fill="#7C3AED"/>
<path id="Path 103" data-node-id="0:189" d="M49.01,51.82c-0.623,0.86 -1.451,1.55 -2.412,2.03c-0.961,0.48 -2.028,0.73 -3.11,0.72c-1.079,0 -2.143,-0.24 -3.104,-0.72c-0.961,-0.47 -1.791,-1.16 -2.422,-2.01c-0.631,-0.84 -1.045,-1.82 -1.208,-2.85c-0.163,-1.03 -0.07,-2.08 0.271,-3.07c0.341,-0.99 0.921,-1.89 1.691,-2.62c0.771,-0.73 1.71,-1.27 2.74,-1.58c1.03,-0.31 2.122,-0.38 3.185,-0.21c1.064,0.18 2.069,0.6 2.932,1.23c-0.248,0.93 -0.373,1.9 -0.371,2.86c0.002,2.2 0.627,4.35 1.808,6.22z" fill="#7C3AED"/>
<path id="Path 104" data-node-id="0:190" d="M82.487,48c0.001,0.86 -0.174,1.72 -0.516,2.51c-0.342,0.8 -0.843,1.53 -1.476,2.14c-0.633,0.61 -1.384,1.09 -2.211,1.42c-0.826,0.33 -1.712,0.5 -2.607,0.5c-1.082,0.01 -2.149,-0.24 -3.11,-0.72c-0.961,-0.48 -1.789,-1.17 -2.412,-2.03c1.181,-1.87 1.806,-4.02 1.808,-6.22c0.002,-0.96 -0.123,-1.93 -0.371,-2.86c1.012,-0.74 2.215,-1.18 3.474,-1.29c1.26,-0.11 2.526,0.12 3.657,0.67c1.131,0.54 2.082,1.38 2.747,2.42c0.665,1.04 1.017,2.24 1.017,3.46z" fill="#7C3AED"/>
<path id="Ellipse 39" data-node-id="0:191" d="M59.584,54.57c5.128,0 9.286,-4.01 9.286,-8.96c0,-4.96 -4.158,-8.97 -9.286,-8.97c-5.129,0 -9.286,4.01 -9.286,8.97c0,4.95 4.157,8.96 9.286,8.96z" fill="#7C3AED"/>
</g></g><defs><linearGradient id="paint10_linear_0_8" x1="0.5" y1="0.5" x2="101.48800000000006" y2="106.72999999999956" gradientUnits="userSpaceOnUse">
<stop stop-color="#7C3AED"/>
<stop offset="1" stop-color="#ECC9FF" stop-opacity="0.231"/>
</linearGradient><clipPath id="clip0_0_8">
<rect width="1920" height="9888" fill="white" x="-524" y="-4360.88"/>
</clipPath></defs></svg>