<svg viewBox="0 0 119.165 115.12" fill="none" xmlns="http://www.w3.org/2000/svg" xmlns:xlink="http://www.w3.org/1999/xlink" id="a26c1ddf" x="0" y="0"><g id="Website" data-node-id="0:8" clip-path="url(#clip0_0_8)"><g id="Group 16262" data-node-id="0:140">
<path id="Rectangle 4470_3" data-node-id="0:141" d="M105.539,0.63h-92.039c-7.18,0 -13,5.62 -13,12.55v88.89c0,6.93 5.82,12.55 13,12.55h92.039c7.18,0 13,-5.62 13,-12.55v-88.89c0,-6.93 -5.82,-12.55 -13,-12.55z" fill="#7C3AED" fill-opacity="0.23"/>
<path id="Rectangle 4470 - Outline_3" data-node-id="0:142" d="M12.457,1.18c-1.478,0 -2.942,0.28 -4.308,0.83c-1.366,0.54 -2.607,1.34 -3.653,2.35c-1.045,1.01 -1.874,2.21 -2.44,3.53c-0.565,1.32 -0.856,2.73 -0.856,4.16v91.02c0,2.88 1.186,5.65 3.296,7.69c2.111,2.03 4.973,3.18 7.958,3.18h94.251c2.985,0 5.847,-1.15 7.958,-3.18c2.11,-2.04 3.296,-4.81 3.296,-7.69v-91.02c0.001,-2.88 -1.184,-5.64 -3.294,-7.68c-2.11,-2.04 -4.971,-3.19 -7.956,-3.19zM12.457,0.5h94.251c3.171,0 6.213,1.22 8.455,3.39c2.242,2.16 3.502,5.1 3.502,8.16v91.02c0,3.06 -1.26,6 -3.502,8.17c-2.242,2.16 -5.284,3.38 -8.455,3.38h-94.251c-3.171,0 -6.212,-1.22 -8.455,-3.38c-2.242,-2.17 -3.502,-5.11 -3.502,-8.17v-91.02c0,-3.06 1.26,-6 3.502,-8.16c2.242,-2.17 5.284,-3.39 8.455,-3.39z" fill="url(#paint11_linear_0_8)"/>
</g><g id="mountain" data-node-id="0:192">
<path id="Path 105" data-node-id="0:193" d="M81.079,76.43l-14.633,-25.69c-0.254,-0.44 -0.629,-0.81 -1.083,-1.06v-3.28h8.667c0.383,0 0.75,-0.14 1.021,-0.41c0.271,-0.26 0.423,-0.61 0.423,-0.98v-6.98c0,-0.18 -0.037,-0.36 -0.11,-0.53c-0.072,-0.17 -0.179,-0.32 -0.313,-0.45c-0.134,-0.13 -0.293,-0.24 -0.468,-0.31c-0.175,-0.07 -0.363,-0.1 -0.553,-0.1h-10.112c-0.383,0 -0.75,0.14 -1.021,0.41c-0.271,0.26 -0.423,0.61 -0.423,0.98v11.65c-0.454,0.25 -0.828,0.62 -1.083,1.06l-4.695,8.22l9.533,16.05c0.304,0.53 0.488,1.11 0.538,1.71c0.049,0.6 -0.035,1.2 -0.249,1.77h13.289c0.251,0 0.497,-0.06 0.715,-0.18c0.218,-0.12 0.4,-0.3 0.528,-0.5c0.128,-0.21 0.198,-0.45 0.203,-0.69c0.005,-0.24 -0.055,-0.48 -0.174,-0.69z" fill="#7C3AED"/>
<path id="Path 106" data-node-id="0:194" d="M53.431,58.96c-0.252,-0.43 -0.617,-0.79 -1.059,-1.04c-0.441,-0.25 -0.943,-0.38 -1.454,-0.38c-0.511,0 -1.013,0.13 -1.455,0.38c-0.442,0.25 -0.807,0.61 -1.059,1.04l-10.298,17.43c-0.127,0.22 -0.194,0.46 -0.194,0.7c0,0.25 0.067,0.49 0.195,0.7c0.128,0.21 0.311,0.39 0.531,0.51c0.221,0.12 0.471,0.19 0.725,0.19h23.111c0.254,0 0.504,-0.07 0.725,-0.19c0.22,-0.12 0.404,-0.3 0.531,-0.51c0.128,-0.21 0.195,-0.45 0.195,-0.7c0,-0.24 -0.067,-0.48 -0.194,-0.7z" fill="#7C3AED"/>
</g></g><defs><linearGradient id="paint11_linear_0_8" x1="0.5" y1="0.5" x2="101.48800000000006" y2="106.72999999999956" gradientUnits="userSpaceOnUse">
<stop stop-color="#7C3AED"/>
<stop offset="1" stop-color="#ECC9FF" stop-opacity="0.231"/>
</linearGradient><clipPath id="clip0_0_8">
<rect width="1920" height="9888" fill="white" x="-850" y="-4360.88"/>
</clipPath></defs></svg>