<svg viewBox="0 0 119.17 115.12" fill="none" xmlns="http://www.w3.org/2000/svg" xmlns:xlink="http://www.w3.org/1999/xlink" id="de7bc7b" x="0" y="0"><g id="Website" data-node-id="0:8" clip-path="url(#clip0_0_8)"><g id="Group 16263" data-node-id="0:143">
<path id="Rectangle 4470_4" data-node-id="0:144" d="M105.54,0.63h-92.04c-7.18,0 -13,5.62 -13,12.55v88.89c0,6.93 5.82,12.55 13,12.55h92.04c7.18,0 13,-5.62 13,-12.55v-88.89c0,-6.93 -5.82,-12.55 -13,-12.55z" fill="#7C3AED" fill-opacity="0.23"/>
<path id="Rectangle 4470 - Outline_4" data-node-id="0:145" d="M12.46,1.18c-1.48,0 -2.95,0.28 -4.31,0.83c-1.37,0.54 -2.61,1.34 -3.65,2.35c-1.05,1.01 -1.88,2.21 -2.44,3.53c-0.57,1.32 -0.86,2.73 -0.86,4.16v91.02c0,2.88 1.19,5.65 3.3,7.69c2.11,2.03 4.97,3.18 7.95,3.18h94.26c2.98,0 5.84,-1.15 7.95,-3.18c2.11,-2.04 3.3,-4.81 3.3,-7.69v-91.02c0,-2.88 -1.18,-5.64 -3.29,-7.68c-2.11,-2.04 -4.98,-3.19 -7.96,-3.19zM12.46,0.5h94.25c3.17,0 6.21,1.22 8.45,3.39c2.25,2.16 3.51,5.1 3.51,8.16v91.02c0,3.06 -1.26,6 -3.51,8.17c-2.24,2.16 -5.28,3.38 -8.45,3.38h-94.25c-3.17,0 -6.22,-1.22 -8.46,-3.38c-2.24,-2.17 -3.5,-5.11 -3.5,-8.17v-91.02c0,-3.06 1.26,-6 3.5,-8.16c2.24,-2.17 5.29,-3.39 8.46,-3.39z" fill="url(#paint12_linear_0_8)"/>
</g><g id="shuttle (2)" data-node-id="0:195">
<path id="Path 107" data-node-id="0:196" d="M48.94,47.94l-3.76,0.28c-0.51,0.04 -1,0.19 -1.45,0.44c-0.44,0.25 -0.82,0.59 -1.1,1.01l-4.33,6.32c-0.21,0.32 -0.34,0.68 -0.37,1.05c-0.04,0.38 0.03,0.75 0.19,1.1c0.15,0.34 0.4,0.64 0.71,0.87c0.31,0.23 0.67,0.38 1.05,0.43l3.44,0.52c0.92,-4.36 2.84,-8.47 5.62,-12.02z" fill="#7C3AED"/>
<path id="Path 108" data-node-id="0:197" d="M57.1,73.27l0.53,3.32c0.06,0.37 0.22,0.72 0.45,1.02c0.24,0.3 0.55,0.53 0.91,0.69c0.35,0.15 0.74,0.21 1.13,0.18c0.39,-0.03 0.76,-0.16 1.09,-0.36l6.54,-4.19c0.43,-0.27 0.79,-0.63 1.05,-1.06c0.26,-0.43 0.42,-0.91 0.45,-1.4l0.29,-3.63c-3.67,2.69 -7.92,4.54 -12.44,5.43z" fill="#7C3AED"/>
<path id="Path 109" data-node-id="0:198" d="M55.81,70.97c0.12,0 0.24,-0.01 0.36,-0.03c1.76,-0.29 3.49,-0.77 5.15,-1.41l-14.12,-13.65c-0.67,1.61 -1.16,3.28 -1.46,4.98c-0.06,0.34 -0.03,0.68 0.08,1c0.1,0.33 0.29,0.62 0.54,0.86l7.88,7.62c0.42,0.4 0.98,0.62 1.57,0.63z" fill="#7C3AED"/>
<path id="Path 110" data-node-id="0:199" d="M77.79,55.19c2.59,-5.12 3.76,-10.79 3.4,-16.47c-0.03,-0.53 -0.26,-1.03 -0.64,-1.4c-0.39,-0.38 -0.91,-0.6 -1.46,-0.63c-0.53,-0.03 -1.17,-0.05 -1.9,-0.05c-5.25,-0.05 -10.44,1.09 -15.16,3.34c-5.83,3.13 -10.6,7.84 -13.72,13.54c0.05,0.03 0.09,0.06 0.12,0.09l15.24,14.72c0.03,0.03 0.07,0.07 0.1,0.11c5.9,-3.01 10.78,-7.61 14.02,-13.25zM63.11,45.48c1.04,-1 2.41,-1.62 3.87,-1.76c1.46,-0.14 2.93,0.21 4.15,1c1.22,0.79 2.12,1.96 2.55,3.32c0.42,1.36 0.35,2.81 -0.21,4.12c-0.57,1.32 -1.58,2.4 -2.88,3.07c-1.29,0.66 -2.79,0.88 -4.23,0.6c-1.44,-0.27 -2.73,-1.03 -3.67,-2.12c-0.93,-1.1 -1.44,-2.47 -1.44,-3.89c0,-1.63 0.67,-3.19 1.86,-4.34z" fill="#7C3AED"/>
<path id="Path 111" data-node-id="0:200" d="M64.91,52.42c0.62,0.6 1.44,0.98 2.32,1.06c0.88,0.08 1.75,-0.13 2.49,-0.6c0.73,-0.48 1.27,-1.18 1.53,-1.99c0.25,-0.82 0.21,-1.69 -0.13,-2.48c-0.34,-0.79 -0.95,-1.43 -1.72,-1.84c-0.78,-0.4 -1.68,-0.52 -2.54,-0.36c-0.87,0.17 -1.65,0.62 -2.2,1.28c-0.56,0.65 -0.87,1.48 -0.87,2.33c0,0.98 0.4,1.91 1.12,2.6z" fill="#7C3AED"/>
<path id="Path 112" data-node-id="0:201" d="M39.21,71.13c0.17,0 0.33,-0.03 0.49,-0.1c0.15,-0.06 0.29,-0.15 0.41,-0.26l4.15,-4.01c0.23,-0.23 0.37,-0.54 0.37,-0.86c0,-0.33 -0.14,-0.64 -0.37,-0.87c-0.12,-0.12 -0.26,-0.21 -0.42,-0.27c-0.15,-0.06 -0.32,-0.09 -0.48,-0.09c-0.34,0 -0.67,0.13 -0.9,0.36l-4.15,4c-0.17,0.17 -0.3,0.39 -0.34,0.63c-0.05,0.24 -0.03,0.49 0.07,0.71c0.1,0.22 0.26,0.41 0.47,0.55c0.21,0.13 0.45,0.21 0.7,0.21z" fill="#7C3AED"/>
<path id="Path 113" data-node-id="0:202" d="M48.05,68.7c-0.12,-0.12 -0.26,-0.21 -0.41,-0.27c-0.16,-0.06 -0.32,-0.09 -0.49,-0.09c-0.17,0 -0.33,0.03 -0.49,0.09c-0.15,0.06 -0.29,0.15 -0.41,0.27l-7.96,7.69c-0.24,0.23 -0.38,0.55 -0.38,0.87c0,0.33 0.14,0.64 0.38,0.87c0.24,0.23 0.56,0.36 0.9,0.36c0.33,0 0.66,-0.13 0.9,-0.36l7.97,-7.69c0.11,-0.12 0.21,-0.25 0.27,-0.4c0.07,-0.15 0.1,-0.31 0.1,-0.47c0,-0.17 -0.04,-0.33 -0.1,-0.47c-0.06,-0.15 -0.16,-0.29 -0.28,-0.4z" fill="#7C3AED"/>
<path id="Path 114" data-node-id="0:203" d="M50.05,72.37l-4.14,4c-0.12,0.12 -0.21,0.25 -0.28,0.4c-0.06,0.15 -0.09,0.31 -0.09,0.47c0,0.16 0.03,0.32 0.09,0.47c0.07,0.15 0.16,0.29 0.28,0.4c0.12,0.11 0.26,0.2 0.41,0.27c0.16,0.06 0.32,0.09 0.49,0.09c0.17,0 0.33,-0.03 0.49,-0.09c0.15,-0.07 0.29,-0.16 0.41,-0.27l4.14,-4c0.24,-0.23 0.38,-0.55 0.38,-0.87c0,-0.33 -0.14,-0.64 -0.38,-0.87c-0.23,-0.23 -0.56,-0.36 -0.9,-0.36c-0.33,0 -0.66,0.13 -0.9,0.36z" fill="#7C3AED"/>
</g></g><defs><linearGradient id="paint12_linear_0_8" x1="0.5" y1="0.5" x2="101.49000000000001" y2="106.72999999999956" gradientUnits="userSpaceOnUse">
<stop stop-color="#7C3AED"/>
<stop offset="1" stop-color="#ECC9FF" stop-opacity="0.231"/>
</linearGradient><clipPath id="clip0_0_8">
<rect width="1920" height="9888" fill="white" x="-1176" y="-4360.88"/>
</clipPath></defs></svg>