<svg viewBox="0 0 119.165 115.12" fill="none" xmlns="http://www.w3.org/2000/svg" xmlns:xlink="http://www.w3.org/1999/xlink" id="820f1460" x="0" y="0"><g id="Website" data-node-id="0:8" clip-path="url(#clip0_0_8)"><g id="Group 16260" data-node-id="0:134">
<path id="Rectangle 4470" data-node-id="0:135" d="M105.539,0.63h-92.039c-7.18,0 -13,5.62 -13,12.55v88.89c0,6.93 5.82,12.55 13,12.55h92.039c7.18,0 13,-5.62 13,-12.55v-88.89c0,-6.93 -5.82,-12.55 -13,-12.55z" fill="#7C3AED" fill-opacity="0.23"/>
<path id="Rectangle 4470 - Outline" data-node-id="0:136" d="M12.457,1.18c-1.478,0 -2.942,0.28 -4.308,0.83c-1.366,0.54 -2.607,1.34 -3.653,2.35c-1.045,1.01 -1.874,2.21 -2.44,3.53c-0.565,1.32 -0.856,2.73 -0.856,4.16v91.02c0,2.88 1.186,5.65 3.296,7.69c2.111,2.03 4.973,3.18 7.958,3.18h94.251c2.985,0 5.847,-1.15 7.958,-3.18c2.11,-2.04 3.296,-4.81 3.296,-7.69v-91.02c0.001,-2.88 -1.184,-5.64 -3.294,-7.68c-2.11,-2.04 -4.971,-3.19 -7.956,-3.19zM12.457,0.5h94.251c3.171,0 6.213,1.22 8.455,3.39c2.242,2.16 3.502,5.1 3.502,8.16v91.02c0,3.06 -1.26,6 -3.502,8.17c-2.242,2.16 -5.284,3.38 -8.455,3.38h-94.251c-3.171,0 -6.212,-1.22 -8.455,-3.38c-2.242,-2.17 -3.502,-5.11 -3.502,-8.17v-91.02c0,-3.06 1.26,-6 3.502,-8.16c2.242,-2.17 5.284,-3.39 8.455,-3.39z" fill="url(#paint9_linear_0_8)"/>
</g><g id="edit (1)" data-node-id="0:181">
<path id="Path 97" data-node-id="0:182" d="M64.132,35.75h-2.484c-0.371,-1.25 -1.156,-2.36 -2.236,-3.14c-1.08,-0.79 -2.395,-1.22 -3.748,-1.22c-1.353,0 -2.668,0.43 -3.748,1.22c-1.08,0.78 -1.865,1.89 -2.236,3.14h-2.484c-0.448,0.01 -0.877,0.18 -1.194,0.49c-0.317,0.3 -0.497,0.72 -0.5,1.15v3.27c0.005,1.01 0.423,1.98 1.163,2.7c0.74,0.71 1.742,1.11 2.789,1.12h12.42c1.047,-0.01 2.049,-0.41 2.789,-1.12c0.74,-0.72 1.158,-1.69 1.163,-2.7v-3.27c-0.003,-0.43 -0.183,-0.85 -0.5,-1.15c-0.317,-0.31 -0.746,-0.48 -1.194,-0.49z" fill="#7C3AED"/>
<path id="Path 98" data-node-id="0:183" d="M68.648,37.93h-0.565v2.73c0.001,0.79 -0.16,1.57 -0.472,2.3c-0.312,0.72 -0.769,1.39 -1.346,1.94c-0.576,0.56 -1.261,1 -2.015,1.3c-0.754,0.3 -1.561,0.46 -2.377,0.46h-12.42c-0.816,0 -1.623,-0.16 -2.377,-0.46c-0.754,-0.3 -1.439,-0.74 -2.015,-1.3c-0.577,-0.55 -1.034,-1.22 -1.346,-1.94c-0.312,-0.73 -0.473,-1.51 -0.472,-2.3v-2.73h-0.564c-0.816,0 -1.623,0.16 -2.377,0.46c-0.754,0.3 -1.439,0.74 -2.015,1.3c-0.577,0.56 -1.034,1.22 -1.346,1.95c-0.312,0.72 -0.473,1.5 -0.472,2.29v27.26c-0.001,0.79 0.16,1.57 0.472,2.3c0.312,0.72 0.769,1.39 1.346,1.94c0.576,0.56 1.261,1 2.015,1.3c0.754,0.3 1.561,0.46 2.377,0.46h16.665l0.5,-2.68c0.222,-1.22 0.821,-2.33 1.716,-3.21l1.807,-1.75h-18.43c-0.442,-0.01 -0.862,-0.18 -1.171,-0.49c-0.309,-0.3 -0.482,-0.71 -0.482,-1.14c0,-0.43 0.173,-0.84 0.482,-1.14c0.309,-0.31 0.729,-0.49 1.171,-0.5h21.453c0.107,0 0.215,0.01 0.316,0.05h0.023l8.129,-7.85v-14.55c0.001,-0.79 -0.16,-1.57 -0.472,-2.29c-0.312,-0.73 -0.769,-1.39 -1.346,-1.95c-0.576,-0.56 -1.261,-1 -2.015,-1.3c-0.754,-0.3 -1.561,-0.46 -2.377,-0.46zM66.39,62.46h-21.453c-0.442,-0.01 -0.862,-0.18 -1.171,-0.49c-0.309,-0.3 -0.482,-0.71 -0.482,-1.14c0,-0.43 0.173,-0.84 0.482,-1.14c0.309,-0.31 0.729,-0.49 1.171,-0.5h21.453c0.442,0.01 0.862,0.19 1.171,0.5c0.309,0.3 0.482,0.71 0.482,1.14c0,0.43 -0.173,0.84 -0.482,1.14c-0.309,0.31 -0.729,0.48 -1.171,0.49zM66.39,55.38h-21.453c-0.442,-0.01 -0.862,-0.19 -1.171,-0.5c-0.309,-0.3 -0.482,-0.71 -0.482,-1.14c0,-0.43 0.173,-0.84 0.482,-1.14c0.309,-0.31 0.729,-0.48 1.171,-0.49h21.453c0.442,0.01 0.862,0.18 1.171,0.49c0.309,0.3 0.482,0.71 0.482,1.14c0,0.43 -0.173,0.84 -0.482,1.14c-0.309,0.31 -0.729,0.49 -1.171,0.5z" fill="#7C3AED"/>
<path id="Path 99" data-node-id="0:184" d="M64.757,83.73c-0.248,0 -0.492,-0.05 -0.717,-0.15c-0.224,-0.1 -0.423,-0.25 -0.582,-0.43c-0.159,-0.19 -0.275,-0.4 -0.339,-0.63c-0.064,-0.23 -0.075,-0.48 -0.032,-0.71l1.2,-6.55c0.061,-0.33 0.225,-0.64 0.47,-0.87l16.767,-16.2c2.059,-1.99 4.083,-1.45 5.189,-0.38l2.793,2.69c0.741,0.72 1.157,1.69 1.157,2.7c0,1.01 -0.416,1.99 -1.157,2.7l-16.766,16.19c-0.244,0.24 -0.558,0.4 -0.9,0.46l-6.786,1.16c-0.097,0.01 -0.195,0.02 -0.294,0.02z" fill="#7C3AED"/>
</g></g><defs><linearGradient id="paint9_linear_0_8" x1="0.5" y1="0.5" x2="101.488" y2="106.72999999999956" gradientUnits="userSpaceOnUse">
<stop stop-color="#7C3AED"/>
<stop offset="1" stop-color="#ECC9FF" stop-opacity="0.231"/>
</linearGradient><clipPath id="clip0_0_8">
<rect width="1920" height="9888" fill="white" x="-198" y="-4360.88"/>
</clipPath></defs></svg>