<svg viewBox="0 0 119.17 115.12" fill="none" xmlns="http://www.w3.org/2000/svg" xmlns:xlink="http://www.w3.org/1999/xlink" id="d07c7397" x="0" y="0"><g id="Website" data-node-id="0:8" clip-path="url(#clip0_0_8)"><g id="Group 16264" data-node-id="0:146">
<path id="Rectangle 4470_5" data-node-id="0:147" d="M105.54,0.63h-92.04c-7.18,0 -13,5.62 -13,12.55v88.89c0,6.93 5.82,12.55 13,12.55h92.04c7.18,0 13,-5.62 13,-12.55v-88.89c0,-6.93 -5.82,-12.55 -13,-12.55z" fill="#7C3AED" fill-opacity="0.23"/>
<path id="Rectangle 4470 - Outline_5" data-node-id="0:148" d="M12.46,1.18c-1.48,0 -2.95,0.28 -4.31,0.83c-1.37,0.54 -2.61,1.34 -3.65,2.35c-1.05,1.01 -1.88,2.21 -2.44,3.53c-0.57,1.32 -0.86,2.73 -0.86,4.16v91.02c0,2.88 1.19,5.65 3.3,7.69c2.11,2.03 4.97,3.18 7.95,3.18h94.26c2.98,0 5.84,-1.15 7.95,-3.18c2.11,-2.04 3.3,-4.81 3.3,-7.69v-91.02c0,-2.88 -1.18,-5.64 -3.29,-7.68c-2.11,-2.04 -4.98,-3.19 -7.96,-3.19zM12.46,0.5h94.25c3.17,0 6.21,1.22 8.45,3.39c2.25,2.16 3.51,5.1 3.51,8.16v91.02c0,3.06 -1.26,6 -3.51,8.17c-2.24,2.16 -5.28,3.38 -8.45,3.38h-94.25c-3.17,0 -6.22,-1.22 -8.46,-3.38c-2.24,-2.17 -3.5,-5.11 -3.5,-8.17v-91.02c0,-3.06 1.26,-6 3.5,-8.16c2.24,-2.17 5.29,-3.39 8.46,-3.39z" fill="url(#paint13_linear_0_8)"/>
</g><g id="idea (1)" data-node-id="0:204">
<g id="Group 16265" data-node-id="0:205">
<path id="Path 115" data-node-id="0:206" fill-rule="evenodd" clip-rule="evenodd" d="M51.99,68.39c-0.1,-0.24 -0.27,-0.44 -0.48,-0.59l-0.01,-0.01c-1.56,-1.17 -2.82,-2.66 -3.69,-4.37c-0.86,-1.71 -1.31,-3.59 -1.3,-5.5c0,-2.14 0.56,-4.24 1.63,-6.11c1.07,-1.87 2.62,-3.45 4.49,-4.59c1.88,-1.13 4.02,-1.79 6.23,-1.91c2.21,-0.12 4.42,0.31 6.41,1.24c1.99,0.93 3.71,2.33 4.99,4.08c1.27,1.74 2.07,3.78 2.32,5.9c0.24,2.13 -0.08,4.28 -0.93,6.25c-0.85,1.97 -2.21,3.7 -3.94,5.03l-0.04,0.02c-0.19,0.15 -0.35,0.34 -0.45,0.55zM54.04,60.02l2.99,2.89c0.15,0.14 0.33,0.26 0.52,0.33c0.2,0.07 0.41,0.1 0.62,0.09c0.21,-0.01 0.42,-0.06 0.6,-0.16c0.19,-0.09 0.35,-0.22 0.49,-0.38l5.97,-7.21c0.24,-0.3 0.35,-0.68 0.3,-1.06c-0.04,-0.37 -0.24,-0.72 -0.55,-0.95c-0.3,-0.24 -0.69,-0.35 -1.08,-0.31c-0.39,0.04 -0.75,0.22 -1,0.51l-4.93,5.96l-1.81,-1.75c-0.28,-0.27 -0.66,-0.42 -1.06,-0.42c-0.4,0 -0.78,0.15 -1.06,0.42c-0.28,0.27 -0.43,0.64 -0.43,1.02c0,0.39 0.15,0.75 0.43,1.02zM67.06,71.27c-0.01,0.96 -0.01,1.98 -0.01,2.89c0,0.57 -0.11,1.13 -0.34,1.66c-0.22,0.52 -0.55,1 -0.97,1.4c-0.42,0.4 -0.91,0.72 -1.45,0.94c-0.55,0.22 -1.13,0.33 -1.72,0.33h-5.98c-1.18,0 -2.32,-0.46 -3.16,-1.27c-0.85,-0.81 -1.32,-1.91 -1.32,-3.06v-2.89zM58.09,38.08c0,-0.38 0.16,-0.75 0.44,-1.02c0.28,-0.27 0.66,-0.42 1.05,-0.42c0.4,0 0.78,0.15 1.06,0.42c0.28,0.27 0.44,0.64 0.44,1.02v2.89c0,0.38 -0.16,0.75 -0.44,1.02c-0.28,0.27 -0.66,0.42 -1.06,0.42c-0.39,0 -0.77,-0.15 -1.05,-0.42c-0.28,-0.27 -0.44,-0.64 -0.44,-1.02zM76.02,59.73c-0.4,0 -0.78,-0.16 -1.06,-0.43c-0.28,-0.27 -0.44,-0.63 -0.44,-1.02c0,-0.38 0.16,-0.75 0.44,-1.02c0.28,-0.27 0.66,-0.42 1.06,-0.42h2.99c0.4,0 0.78,0.15 1.06,0.42c0.28,0.27 0.43,0.64 0.43,1.02c0,0.39 -0.15,0.75 -0.43,1.02c-0.28,0.27 -0.66,0.43 -1.06,0.43zM40.15,59.73c-0.39,0 -0.77,-0.16 -1.05,-0.43c-0.28,-0.27 -0.44,-0.63 -0.44,-1.02c0,-0.38 0.16,-0.75 0.44,-1.02c0.28,-0.27 0.66,-0.42 1.05,-0.42h2.99c0.4,0 0.78,0.15 1.06,0.42c0.28,0.27 0.44,0.64 0.44,1.02c0,0.39 -0.16,0.75 -0.44,1.02c-0.28,0.27 -0.66,0.43 -1.06,0.43zM74.53,41.81c0.13,-0.14 0.3,-0.25 0.48,-0.32c0.18,-0.08 0.38,-0.12 0.58,-0.12c0.2,0 0.39,0.04 0.58,0.11c0.18,0.07 0.35,0.18 0.49,0.31c0.14,0.14 0.25,0.3 0.32,0.48c0.08,0.18 0.12,0.37 0.11,0.56c0,0.19 -0.04,0.38 -0.12,0.55c-0.07,0.18 -0.19,0.34 -0.33,0.47l-2.11,2.04c-0.28,0.27 -0.66,0.42 -1.06,0.42c-0.4,0 -0.78,-0.15 -1.06,-0.42c-0.28,-0.27 -0.43,-0.63 -0.43,-1.02c-0.01,-0.38 0.15,-0.75 0.43,-1.02zM42.53,43.85c-0.27,-0.27 -0.42,-0.63 -0.41,-1.01c0,-0.38 0.16,-0.74 0.43,-1c0.28,-0.27 0.65,-0.42 1.04,-0.43c0.39,0 0.77,0.14 1.05,0.4l2.11,2.04c0.14,0.14 0.25,0.3 0.33,0.47c0.07,0.18 0.11,0.36 0.11,0.55c0,0.19 -0.04,0.38 -0.11,0.55c-0.08,0.18 -0.19,0.34 -0.33,0.47c-0.14,0.14 -0.3,0.24 -0.48,0.32c-0.18,0.07 -0.38,0.1 -0.57,0.1c-0.2,0 -0.4,-0.03 -0.58,-0.11c-0.18,-0.07 -0.34,-0.17 -0.48,-0.31z" fill="#7C3AED"/>
</g>
</g></g><defs><linearGradient id="paint13_linear_0_8" x1="0.5" y1="0.5" x2="101.49000000000001" y2="106.72999999999956" gradientUnits="userSpaceOnUse">
<stop stop-color="#7C3AED"/>
<stop offset="1" stop-color="#ECC9FF" stop-opacity="0.231"/>
</linearGradient><clipPath id="clip0_0_8">
<rect width="1920" height="9888" fill="white" x="-1502" y="-4360.88"/>
</clipPath></defs></svg>