<svg viewBox="0 0 480.101 276.09" fill="none" xmlns="http://www.w3.org/2000/svg" xmlns:xlink="http://www.w3.org/1999/xlink" id="84808833" x="0" y="0"><g id="Website" data-node-id="0:8" clip-path="url(#clip0_0_8)"><path id="Path 93_2" data-node-id="0:400" d="M21.095,0.5h437.906c5.46,0 10.7,2.09 14.56,5.82c3.87,3.73 6.04,8.79 6.04,14.06v235.32c0,5.28 -2.17,10.34 -6.04,14.07c-3.86,3.73 -9.1,5.82 -14.56,5.82h-437.906c-5.461,0 -10.699,-2.09 -14.561,-5.82c-3.862,-3.73 -6.032,-8.79 -6.034,-14.07v-235.32c0.001,-5.27 2.172,-10.33 6.034,-14.06c3.862,-3.73 9.099,-5.82 14.561,-5.82z" fill="url(#paint16_linear_0_8)"/><path id="Rectangle 4459 - Outline_4" data-node-id="0:401" d="M21.095,2.59c-4.887,0 -9.574,1.87 -13.03,5.21c-3.455,3.34 -5.397,7.87 -5.397,12.58v235.32c0,2.34 0.476,4.66 1.402,6.82c0.925,2.16 2.283,4.12 3.994,5.77c1.711,1.65 3.743,2.96 5.979,3.86c2.235,0.89 4.632,1.35 7.052,1.35h437.906c4.89,0 9.57,-1.87 13.03,-5.21c3.45,-3.34 5.4,-7.86 5.4,-12.58v-235.33c0,-4.71 -1.95,-9.24 -5.4,-12.58c-3.46,-3.34 -8.14,-5.21 -13.03,-5.21zM21.095,0.5h437.906c5.46,0 10.7,2.09 14.56,5.82c3.87,3.73 6.04,8.79 6.04,14.06v235.32c0,5.28 -2.17,10.34 -6.04,14.07c-3.86,3.73 -9.1,5.82 -14.56,5.82h-437.906c-5.461,0 -10.699,-2.09 -14.561,-5.82c-3.862,-3.73 -6.032,-8.79 -6.034,-14.07v-235.32c0.001,-5.27 2.172,-10.33 6.034,-14.06c3.862,-3.73 9.099,-5.82 14.561,-5.82z" fill="url(#paint17_linear_0_8)"/></g><defs><linearGradient id="paint16_linear_0_8" x1="14.394000000000005" y1="6.8200000000006185" x2="248.28999999999996" y2="403.2600000000002" gradientUnits="userSpaceOnUse">
<stop stop-color="white" stop-opacity="0.18"/>
<stop offset="1" stop-color="white" stop-opacity="0.18"/>
</linearGradient><linearGradient id="paint17_linear_0_8" x1="-20.58000000000004" y1="-42.969999999999345" x2="110.37299999999993" y2="291.97000000000025" gradientUnits="userSpaceOnUse">
<stop stop-color="#7C3AED"/>
<stop offset="1" stop-color="#7C3AED" stop-opacity="0.69"/>
</linearGradient><clipPath id="clip0_0_8">
<rect width="1920" height="9888" fill="white" x="-738.119" y="-7763.28"/>
</clipPath></defs></svg>